<?xml version="1.0" encoding="UTF-8" standalone="no"?>
<svg
   xmlns:dc="http://purl.org/dc/elements/1.1/"
   xmlns:cc="http://creativecommons.org/ns#"
   xmlns:rdf="http://www.w3.org/1999/02/22-rdf-syntax-ns#"
   xmlns:svg="http://www.w3.org/2000/svg"
   xmlns="http://www.w3.org/2000/svg"
   xmlns:sodipodi="http://sodipodi.sourceforge.net/DTD/sodipodi-0.dtd"
   xmlns:inkscape="http://www.inkscape.org/namespaces/inkscape"
   version="1.1"
   x="0"
   y="0"
   width="1200"
   height="520"
   viewBox="0, 0, 1200, 520"
   id="svg2"
   inkscape:version="0.48.4 r9939"
   sodipodi:docname="pawns.svg">
  <metadata
     id="metadata568">
    <rdf:RDF>
      <cc:Work
         rdf:about="">
        <dc:format>image/svg+xml</dc:format>
        <dc:type
           rdf:resource="http://purl.org/dc/dcmitype/StillImage" />
        <dc:title></dc:title>
      </cc:Work>
    </rdf:RDF>
  </metadata>
  <defs
     id="defs566" />
  <sodipodi:namedview
     pagecolor="#ffffff"
     bordercolor="#666666"
     borderopacity="1"
     objecttolerance="10"
     gridtolerance="10"
     guidetolerance="10"
     inkscape:pageopacity="0"
     inkscape:pageshadow="2"
     inkscape:window-width="1360"
     inkscape:window-height="695"
     id="namedview564"
     showgrid="false"
     inkscape:zoom="0.78132857"
     inkscape:cx="448.42302"
     inkscape:cy="293.20388"
     inkscape:window-x="0"
     inkscape:window-y="24"
     inkscape:window-maximized="1"
     inkscape:current-layer="Layer_1" />
  <g
     id="Background">
    <rect
       x="0"
       y="0"
       width="1200"
       height="520"
       fill="#000000"
       fill-opacity="0"
       id="rect5" />
  </g>
  <g
     id="Layer_1">
    <path
       d="M61.032,400 L111.032,400 L111.032,450 L61.032,450 z"
       fill="#65A1CF"
       id="path8" />
    <path
       d="M111.032,400 L161.032,400 L161.032,450 L111.032,450 z"
       fill="#EBEDED"
       id="path10" />
    <path
       d="M161.032,400 L211.032,400 L211.032,450 L161.032,450 z"
       fill="#65A1CF"
       id="path12" />
    <path
       d="M211.032,400 L261.032,400 L261.032,450 L211.032,450 z"
       fill="#EBEDED"
       id="path14" />
    <path
       d="M261.032,400 L311.032,400 L311.032,450 L261.032,450 z"
       fill="#65A1CF"
       id="path16" />
    <path
       d="M311.032,400 L361.032,400 L361.032,450 L311.032,450 z"
       fill="#EBEDED"
       id="path18" />
    <path
       d="M361.032,400 L411.032,400 L411.032,450 L361.032,450 z"
       fill="#65A1CF"
       id="path20" />
    <path
       d="M411.032,400 L461.032,400 L461.032,450 L411.032,450 z"
       fill="#EBEDED"
       id="path22" />
    <path
       d="M61.032,300 L111.032,300 L111.032,350 L61.032,350 z"
       fill="#65A1CF"
       id="path24" />
    <path
       d="M111.032,300 L161.032,300 L161.032,350 L111.032,350 z"
       fill="#EBEDED"
       id="path26" />
    <path
       d="M161.032,300 L211.032,300 L211.032,350 L161.032,350 z"
       fill="#65A1CF"
       id="path28" />
    <path
       d="M211.032,300 L261.032,300 L261.032,350 L211.032,350 z"
       fill="#EBEDED"
       id="path30" />
    <path
       d="M261.032,300 L311.032,300 L311.032,350 L261.032,350 z"
       fill="#65A1CF"
       id="path32" />
    <path
       d="M311.032,300 L361.032,300 L361.032,350 L311.032,350 z"
       fill="#EBEDED"
       id="path34" />
    <path
       d="M361.032,300 L411.032,300 L411.032,350 L361.032,350 z"
       fill="#65A1CF"
       id="path36" />
    <path
       d="M411.032,300 L461.032,300 L461.032,350 L411.032,350 z"
       fill="#EBEDED"
       id="path38" />
    <path
       d="M111.032,350 L161.032,350 L161.032,400 L111.032,400 z"
       fill="#65A1CF"
       id="path40" />
    <path
       d="M161.032,350 L211.032,350 L211.032,400 L161.032,400 z"
       fill="#EBEDED"
       id="path42" />
    <path
       d="M211.032,350 L261.032,350 L261.032,400 L211.032,400 z"
       fill="#65A1CF"
       id="path44" />
    <path
       d="M261.032,350 L311.032,350 L311.032,400 L261.032,400 z"
       fill="#EBEDED"
       id="path46" />
    <path
       d="M311.032,350 L361.032,350 L361.032,400 L311.032,400 z"
       fill="#65A1CF"
       id="path48" />
    <path
       d="M361.032,350 L411.032,350 L411.032,400 L361.032,400 z"
       fill="#EBEDED"
       id="path50" />
    <path
       d="M411.032,350 L461.032,350 L461.032,400 L411.032,400 z"
       fill="#65A1CF"
       id="path52" />
    <path
       d="M61.032,350 L111.032,350 L111.032,400 L61.032,400 z"
       fill="#EBEDED"
       id="path54" />
    <path
       d="M111.032,250 L161.032,250 L161.032,300 L111.032,300 z"
       fill="#65A1CF"
       id="path56" />
    <path
       d="M161.032,250 L211.032,250 L211.032,300 L161.032,300 z"
       fill="#EBEDED"
       id="path58" />
    <path
       d="M211.032,250 L261.032,250 L261.032,300 L211.032,300 z"
       fill="#65A1CF"
       id="path60" />
    <path
       d="M261.032,250 L311.032,250 L311.032,300 L261.032,300 z"
       fill="#EBEDED"
       id="path62" />
    <path
       d="M311.032,250 L361.032,250 L361.032,300 L311.032,300 z"
       fill="#65A1CF"
       id="path64" />
    <path
       d="M361.032,250 L411.032,250 L411.032,300 L361.032,300 z"
       fill="#EBEDED"
       id="path66" />
    <path
       d="M411.032,250 L461.032,250 L461.032,300 L411.032,300 z"
       fill="#65A1CF"
       id="path68" />
    <path
       d="M61.032,250 L111.032,250 L111.032,300 L61.032,300 z"
       fill="#EBEDED"
       id="path70" />
    <path
       d="M61.032,200 L111.032,200 L111.032,250 L61.032,250 z"
       fill="#65A1CF"
       id="path72" />
    <path
       d="M111.032,200 L161.032,200 L161.032,250 L111.032,250 z"
       fill="#EBEDED"
       id="path74" />
    <path
       d="M161.032,200 L211.032,200 L211.032,250 L161.032,250 z"
       fill="#65A1CF"
       id="path76" />
    <path
       d="M211.032,200 L261.032,200 L261.032,250 L211.032,250 z"
       fill="#EBEDED"
       id="path78" />
    <path
       d="M261.032,200 L311.032,200 L311.032,250 L261.032,250 z"
       fill="#65A1CF"
       id="path80" />
    <path
       d="M311.032,200 L361.032,200 L361.032,250 L311.032,250 z"
       fill="#EBEDED"
       id="path82" />
    <path
       d="M361.032,200 L411.032,200 L411.032,250 L361.032,250 z"
       fill="#65A1CF"
       id="path84" />
    <path
       d="M411.032,200 L461.032,200 L461.032,250 L411.032,250 z"
       fill="#EBEDED"
       id="path86" />
    <path
       d="M61.032,100 L111.032,100 L111.032,150 L61.032,150 z"
       fill="#65A1CF"
       id="path88" />
    <path
       d="M111.032,100 L161.032,100 L161.032,150 L111.032,150 z"
       fill="#EBEDED"
       id="path90" />
    <path
       d="M161.032,100 L211.032,100 L211.032,150 L161.032,150 z"
       fill="#65A1CF"
       id="path92" />
    <path
       d="M211.032,100 L261.032,100 L261.032,150 L211.032,150 z"
       fill="#EBEDED"
       id="path94" />
    <path
       d="M261.032,100 L311.032,100 L311.032,150 L261.032,150 z"
       fill="#65A1CF"
       id="path96" />
    <path
       d="M311.032,100 L361.032,100 L361.032,150 L311.032,150 z"
       fill="#EBEDED"
       id="path98" />
    <path
       d="M361.032,100 L411.032,100 L411.032,150 L361.032,150 z"
       fill="#65A1CF"
       id="path100" />
    <path
       d="M411.032,100 L461.032,100 L461.032,150 L411.032,150 z"
       fill="#EBEDED"
       id="path102" />
    <path
       d="M111.032,150 L161.032,150 L161.032,200 L111.032,200 z"
       fill="#65A1CF"
       id="path104" />
    <path
       d="M161.032,150 L211.032,150 L211.032,200 L161.032,200 z"
       fill="#EBEDED"
       id="path106" />
    <path
       d="M211.032,150 L261.032,150 L261.032,200 L211.032,200 z"
       fill="#65A1CF"
       id="path108" />
    <path
       d="M261.032,150 L311.032,150 L311.032,200 L261.032,200 z"
       fill="#EBEDED"
       id="path110" />
    <path
       d="M311.032,150 L361.032,150 L361.032,200 L311.032,200 z"
       fill="#65A1CF"
       id="path112" />
    <path
       d="M361.032,150 L411.032,150 L411.032,200 L361.032,200 z"
       fill="#EBEDED"
       id="path114" />
    <path
       d="M411.032,150 L461.032,150 L461.032,200 L411.032,200 z"
       fill="#65A1CF"
       id="path116" />
    <path
       d="M61.032,150 L111.032,150 L111.032,200 L61.032,200 z"
       fill="#EBEDED"
       id="path118" />
    <path
       d="M111.032,50 L161.032,50 L161.032,100 L111.032,100 z"
       fill="#65A1CF"
       id="path120" />
    <path
       d="M161.032,50 L211.032,50 L211.032,100 L161.032,100 z"
       fill="#EBEDED"
       id="path122" />
    <path
       d="M211.032,50 L261.032,50 L261.032,100 L211.032,100 z"
       fill="#65A1CF"
       id="path124" />
    <path
       d="M261.032,50 L311.032,50 L311.032,100 L261.032,100 z"
       fill="#EBEDED"
       id="path126" />
    <path
       d="M311.032,50 L361.032,50 L361.032,100 L311.032,100 z"
       fill="#65A1CF"
       id="path128" />
    <path
       d="M361.032,50 L411.032,50 L411.032,100 L361.032,100 z"
       fill="#EBEDED"
       id="path130" />
    <path
       d="M411.032,50 L461.032,50 L461.032,100 L411.032,100 z"
       fill="#65A1CF"
       id="path132" />
    <path
       d="M61.032,50 L111.032,50 L111.032,100 L61.032,100 z"
       fill="#EBEDED"
       id="path134" />
    <path
       d="M61.532,50.5 L461.532,50.5 L461.532,450.5 L61.532,450.5 z"
       fill-opacity="0"
       stroke="#294270"
       stroke-width="8"
       id="path136" />
    <text
       transform="matrix(1, 0, 0, 1, 85.704, 482)"
       id="text138">
      <tspan
         x="-10.742"
         y="10"
         font-family="Roboto-Bold"
         font-size="40"
         fill="#294270"
         id="tspan140">a</tspan>
    </text>
    <text
       transform="matrix(1, 0, 0, 1, 135.704, 482)"
       id="text142">
      <tspan
         x="-11.289"
         y="10"
         font-family="Roboto-Bold"
         font-size="40"
         fill="#294270"
         id="tspan144">b</tspan>
    </text>
    <text
       transform="matrix(1, 0, 0, 1, 185.704, 482)"
       id="text146">
      <tspan
         x="-10.352"
         y="10"
         font-family="Roboto-Bold"
         font-size="40"
         fill="#294270"
         id="tspan148">c</tspan>
    </text>
    <text
       transform="matrix(1, 0, 0, 1, 235.704, 482)"
       id="text150">
      <tspan
         x="-11.289"
         y="10"
         font-family="Roboto-Bold"
         font-size="40"
         fill="#294270"
         id="tspan152">d</tspan>
    </text>
    <text
       transform="matrix(1, 0, 0, 1, 285.704, 482)"
       id="text154">
      <tspan
         x="-10.586"
         y="10"
         font-family="Roboto-Bold"
         font-size="40"
         fill="#294270"
         id="tspan156">e</tspan>
    </text>
    <text
       transform="matrix(1, 0, 0, 1, 388.415, 482)"
       id="text158">
      <tspan
         x="-11.289"
         y="10"
         font-family="Roboto-Bold"
         font-size="40"
         fill="#294270"
         id="tspan160">g</tspan>
    </text>
    <text
       transform="matrix(1, 0, 0, 1, 340.336, 482)"
       id="text162">
      <tspan
         x="-7.148"
         y="10"
         font-family="Roboto-Bold"
         font-size="40"
         fill="#294270"
         id="tspan164">f</tspan>
    </text>
    <text
       transform="matrix(1, 0, 0, 1, 435.704, 482)"
       id="text166">
      <tspan
         x="-11.289"
         y="10"
         font-family="Roboto-Bold"
         font-size="40"
         fill="#294270"
         id="tspan168">h</tspan>
    </text>
    <text
       transform="matrix(1, 0, 0, 1, 32.863, 427)"
       id="text170">
      <tspan
         x="-11.475"
         y="15"
         font-family="Roboto-Bold"
         font-size="40"
         fill="#294270"
         id="tspan172">1</tspan>
    </text>
    <text
       transform="matrix(1, 0, 0, 1, 32.863, 377)"
       id="text174">
      <tspan
         x="-11.475"
         y="15"
         font-family="Roboto-Bold"
         font-size="40"
         fill="#294270"
         id="tspan176">2</tspan>
    </text>
    <text
       transform="matrix(1, 0, 0, 1, 32.863, 327)"
       id="text178">
      <tspan
         x="-11.475"
         y="15"
         font-family="Roboto-Bold"
         font-size="40"
         fill="#294270"
         id="tspan180">3</tspan>
    </text>
    <text
       transform="matrix(1, 0, 0, 1, 32.863, 277)"
       id="text182">
      <tspan
         x="-11.475"
         y="15"
         font-family="Roboto-Bold"
         font-size="40"
         fill="#294270"
         id="tspan184">4</tspan>
    </text>
    <text
       transform="matrix(1, 0, 0, 1, 32.863, 227)"
       id="text186">
      <tspan
         x="-11.475"
         y="15"
         font-family="Roboto-Bold"
         font-size="40"
         fill="#294270"
         id="tspan188">5</tspan>
    </text>
    <text
       transform="matrix(1, 0, 0, 1, 32.863, 177)"
       id="text190">
      <tspan
         x="-11.475"
         y="15"
         font-family="Roboto-Bold"
         font-size="40"
         fill="#294270"
         id="tspan192">6</tspan>
    </text>
    <text
       transform="matrix(1, 0, 0, 1, 32.863, 127)"
       id="text194">
      <tspan
         x="-11.475"
         y="15"
         font-family="Roboto-Bold"
         font-size="40"
         fill="#294270"
         id="tspan196">7</tspan>
    </text>
    <text
       transform="matrix(1, 0, 0, 1, 32.863, 77)"
       id="text198">
      <tspan
         x="-11.475"
         y="15"
         font-family="Roboto-Bold"
         font-size="40"
         fill="#294270"
         id="tspan200">8</tspan>
    </text>
    <g
       id="g202">
      <text
         transform="matrix(1, 0, 0, 1, 236.032, 271.5)"
         id="text204">
        <tspan
           x="-24"
           y="18.5"
           font-family="ArialUnicodeMS"
           font-size="48"
           fill="#294270"
           id="tspan206">♟</tspan>
      </text>
      <path
         d="M250.587,294.945 L221.477,294.945 L221.477,293.305 Q221.477,287.094 227.735,285.781 Q232.962,277.93 232.962,272.234 L232.962,271.227 L227.29,271.227 L227.29,270.172 Q227.29,268.812 228.508,267.547 Q229.727,266.281 231.954,265.461 Q230.454,263.68 230.454,261.477 Q230.454,259.203 232.094,257.562 Q233.735,255.922 236.032,255.922 Q238.329,255.922 239.969,257.562 Q241.61,259.203 241.61,261.477 Q241.61,263.68 240.11,265.461 Q242.337,266.281 243.555,267.547 Q244.774,268.812 244.774,270.172 L244.774,271.227 L239.102,271.227 L239.102,272.234 Q239.102,277.93 244.329,285.781 Q250.587,287.094 250.587,293.305 z"
         fill="#8FC7ED"
         id="path208" />
      <path
         d="M250.587,294.945 L221.477,294.945 L221.477,293.305 Q221.477,287.094 227.735,285.781 Q232.962,277.93 232.962,272.234 L232.962,271.227 L227.29,271.227 L227.29,270.172 Q227.29,268.812 228.508,267.547 Q229.727,266.281 231.954,265.461 Q230.454,263.68 230.454,261.477 Q230.454,259.203 232.094,257.562 Q233.735,255.922 236.032,255.922 Q238.329,255.922 239.969,257.562 Q241.61,259.203 241.61,261.477 Q241.61,263.68 240.11,265.461 Q242.337,266.281 243.555,267.547 Q244.774,268.812 244.774,270.172 L244.774,271.227 L239.102,271.227 L239.102,272.234 Q239.102,277.93 244.329,285.781 Q250.587,287.094 250.587,293.305 z"
         fill-opacity="0"
         stroke="#294270"
         stroke-width="2"
         id="path210" />
    </g>
    <g
       id="g212">
      <text
         transform="matrix(1, 0, 0, 1, 386.032, 221.5)"
         id="text214">
        <tspan
           x="-24"
           y="18.5"
           font-family="ArialUnicodeMS"
           font-size="48"
           fill="#294270"
           id="tspan216">♟</tspan>
      </text>
      <path
         d="M400.587,244.945 L371.477,244.945 L371.477,243.305 Q371.477,237.094 377.735,235.781 Q382.962,227.93 382.962,222.234 L382.962,221.227 L377.29,221.227 L377.29,220.172 Q377.29,218.812 378.508,217.547 Q379.727,216.281 381.954,215.461 Q380.454,213.68 380.454,211.477 Q380.454,209.203 382.094,207.562 Q383.735,205.922 386.032,205.922 Q388.329,205.922 389.969,207.562 Q391.61,209.203 391.61,211.477 Q391.61,213.68 390.11,215.461 Q392.337,216.281 393.555,217.547 Q394.774,218.812 394.774,220.172 L394.774,221.227 L389.102,221.227 L389.102,222.234 Q389.102,227.93 394.329,235.781 Q400.587,237.094 400.587,243.305 z"
         fill="#8FC7ED"
         id="path218" />
      <path
         d="M400.587,244.945 L371.477,244.945 L371.477,243.305 Q371.477,237.094 377.735,235.781 Q382.962,227.93 382.962,222.234 L382.962,221.227 L377.29,221.227 L377.29,220.172 Q377.29,218.812 378.508,217.547 Q379.727,216.281 381.954,215.461 Q380.454,213.68 380.454,211.477 Q380.454,209.203 382.094,207.562 Q383.735,205.922 386.032,205.922 Q388.329,205.922 389.969,207.562 Q391.61,209.203 391.61,211.477 Q391.61,213.68 390.11,215.461 Q392.337,216.281 393.555,217.547 Q394.774,218.812 394.774,220.172 L394.774,221.227 L389.102,221.227 L389.102,222.234 Q389.102,227.93 394.329,235.781 Q400.587,237.094 400.587,243.305 z"
         fill-opacity="0"
         stroke="#294270"
         stroke-width="2"
         id="path220" />
    </g>
    <g
       id="g222">
      <text
         transform="matrix(1, 0, 0, 1, 336.032, 271.5)"
         id="text224">
        <tspan
           x="-24"
           y="18.5"
           font-family="ArialUnicodeMS"
           font-size="48"
           fill="#294270"
           id="tspan226">♟</tspan>
      </text>
      <path
         d="M350.587,294.945 L321.477,294.945 L321.477,293.305 Q321.477,287.094 327.735,285.781 Q332.962,277.93 332.962,272.234 L332.962,271.227 L327.29,271.227 L327.29,270.172 Q327.29,268.812 328.508,267.547 Q329.727,266.281 331.954,265.461 Q330.454,263.68 330.454,261.477 Q330.454,259.203 332.094,257.562 Q333.735,255.922 336.032,255.922 Q338.329,255.922 339.969,257.562 Q341.61,259.203 341.61,261.477 Q341.61,263.68 340.11,265.461 Q342.337,266.281 343.555,267.547 Q344.774,268.812 344.774,270.172 L344.774,271.227 L339.102,271.227 L339.102,272.234 Q339.102,277.93 344.329,285.781 Q350.587,287.094 350.587,293.305 z"
         fill="#8FC7ED"
         id="path228" />
      <path
         d="M350.587,294.945 L321.477,294.945 L321.477,293.305 Q321.477,287.094 327.735,285.781 Q332.962,277.93 332.962,272.234 L332.962,271.227 L327.29,271.227 L327.29,270.172 Q327.29,268.812 328.508,267.547 Q329.727,266.281 331.954,265.461 Q330.454,263.68 330.454,261.477 Q330.454,259.203 332.094,257.562 Q333.735,255.922 336.032,255.922 Q338.329,255.922 339.969,257.562 Q341.61,259.203 341.61,261.477 Q341.61,263.68 340.11,265.461 Q342.337,266.281 343.555,267.547 Q344.774,268.812 344.774,270.172 L344.774,271.227 L339.102,271.227 L339.102,272.234 Q339.102,277.93 344.329,285.781 Q350.587,287.094 350.587,293.305 z"
         fill-opacity="0"
         stroke="#294270"
         stroke-width="2"
         id="path230" />
    </g>
    <g
       id="g232">
      <text
         transform="matrix(1, 0, 0, 1, 286.032, 321.5)"
         id="text234">
        <tspan
           x="-24"
           y="18.5"
           font-family="ArialUnicodeMS"
           font-size="48"
           fill="#294270"
           id="tspan236">♟</tspan>
      </text>
      <path
         d="M300.587,344.945 L271.477,344.945 L271.477,343.305 Q271.477,337.094 277.735,335.781 Q282.962,327.93 282.962,322.234 L282.962,321.227 L277.29,321.227 L277.29,320.172 Q277.29,318.812 278.508,317.547 Q279.727,316.281 281.954,315.461 Q280.454,313.68 280.454,311.477 Q280.454,309.203 282.094,307.562 Q283.735,305.922 286.032,305.922 Q288.329,305.922 289.969,307.562 Q291.61,309.203 291.61,311.477 Q291.61,313.68 290.11,315.461 Q292.337,316.281 293.555,317.547 Q294.774,318.812 294.774,320.172 L294.774,321.227 L289.102,321.227 L289.102,322.234 Q289.102,327.93 294.329,335.781 Q300.587,337.094 300.587,343.305 z"
         fill="#8FC7ED"
         id="path238" />
      <path
         d="M300.587,344.945 L271.477,344.945 L271.477,343.305 Q271.477,337.094 277.735,335.781 Q282.962,327.93 282.962,322.234 L282.962,321.227 L277.29,321.227 L277.29,320.172 Q277.29,318.812 278.508,317.547 Q279.727,316.281 281.954,315.461 Q280.454,313.68 280.454,311.477 Q280.454,309.203 282.094,307.562 Q283.735,305.922 286.032,305.922 Q288.329,305.922 289.969,307.562 Q291.61,309.203 291.61,311.477 Q291.61,313.68 290.11,315.461 Q292.337,316.281 293.555,317.547 Q294.774,318.812 294.774,320.172 L294.774,321.227 L289.102,321.227 L289.102,322.234 Q289.102,327.93 294.329,335.781 Q300.587,337.094 300.587,343.305 z"
         fill-opacity="0"
         stroke="#294270"
         stroke-width="2"
         id="path240" />
    </g>
    <g
       id="g242">
      <text
         transform="matrix(1, 0, 0, 1, 186.032, 321.5)"
         id="text244">
        <tspan
           x="-24"
           y="18.5"
           font-family="ArialUnicodeMS"
           font-size="48"
           fill="#294270"
           id="tspan246">♟</tspan>
      </text>
      <path
         d="M200.587,344.945 L171.477,344.945 L171.477,343.305 Q171.477,337.094 177.735,335.781 Q182.962,327.93 182.962,322.234 L182.962,321.227 L177.29,321.227 L177.29,320.172 Q177.29,318.812 178.508,317.547 Q179.727,316.281 181.954,315.461 Q180.454,313.68 180.454,311.477 Q180.454,309.203 182.094,307.562 Q183.735,305.922 186.032,305.922 Q188.329,305.922 189.969,307.562 Q191.61,309.203 191.61,311.477 Q191.61,313.68 190.11,315.461 Q192.337,316.281 193.555,317.547 Q194.774,318.812 194.774,320.172 L194.774,321.227 L189.102,321.227 L189.102,322.234 Q189.102,327.93 194.329,335.781 Q200.587,337.094 200.587,343.305 z"
         fill="#8FC7ED"
         id="path248" />
      <path
         d="M200.587,344.945 L171.477,344.945 L171.477,343.305 Q171.477,337.094 177.735,335.781 Q182.962,327.93 182.962,322.234 L182.962,321.227 L177.29,321.227 L177.29,320.172 Q177.29,318.812 178.508,317.547 Q179.727,316.281 181.954,315.461 Q180.454,313.68 180.454,311.477 Q180.454,309.203 182.094,307.562 Q183.735,305.922 186.032,305.922 Q188.329,305.922 189.969,307.562 Q191.61,309.203 191.61,311.477 Q191.61,313.68 190.11,315.461 Q192.337,316.281 193.555,317.547 Q194.774,318.812 194.774,320.172 L194.774,321.227 L189.102,321.227 L189.102,322.234 Q189.102,327.93 194.329,335.781 Q200.587,337.094 200.587,343.305 z"
         fill-opacity="0"
         stroke="#294270"
         stroke-width="2"
         id="path250" />
    </g>
    <g
       id="g252">
      <text
         transform="matrix(1, 0, 0, 1, 135.704, 271.5)"
         id="text254">
        <tspan
           x="-24"
           y="18.5"
           font-family="ArialUnicodeMS"
           font-size="48"
           fill="#294270"
           id="tspan256">♟</tspan>
      </text>
      <path
         d="M150.258,294.945 L121.149,294.945 L121.149,293.305 Q121.149,287.094 127.407,285.781 Q132.633,277.93 132.633,272.234 L132.633,271.227 L126.962,271.227 L126.962,270.172 Q126.962,268.812 128.18,267.547 Q129.399,266.281 131.626,265.461 Q130.126,263.68 130.126,261.477 Q130.126,259.203 131.766,257.562 Q133.407,255.922 135.704,255.922 Q138.001,255.922 139.641,257.562 Q141.282,259.203 141.282,261.477 Q141.282,263.68 139.782,265.461 Q142.008,266.281 143.227,267.547 Q144.446,268.812 144.446,270.172 L144.446,271.227 L138.774,271.227 L138.774,272.234 Q138.774,277.93 144.001,285.781 Q150.258,287.094 150.258,293.305 z"
         fill="#8FC7ED"
         id="path258" />
      <path
         d="M150.258,294.945 L121.149,294.945 L121.149,293.305 Q121.149,287.094 127.407,285.781 Q132.633,277.93 132.633,272.234 L132.633,271.227 L126.962,271.227 L126.962,270.172 Q126.962,268.812 128.18,267.547 Q129.399,266.281 131.626,265.461 Q130.126,263.68 130.126,261.477 Q130.126,259.203 131.766,257.562 Q133.407,255.922 135.704,255.922 Q138.001,255.922 139.641,257.562 Q141.282,259.203 141.282,261.477 Q141.282,263.68 139.782,265.461 Q142.008,266.281 143.227,267.547 Q144.446,268.812 144.446,270.172 L144.446,271.227 L138.774,271.227 L138.774,272.234 Q138.774,277.93 144.001,285.781 Q150.258,287.094 150.258,293.305 z"
         fill-opacity="0"
         stroke="#294270"
         stroke-width="2"
         id="path260" />
    </g>
    <g
       id="g262">
      <text
         transform="matrix(1, 0, 0, 1, 236.032, 371.5)"
         id="text264">
        <tspan
           x="-24"
           y="18.5"
           font-family="ArialUnicodeMS"
           font-size="48"
           fill="#294270"
           id="tspan266">♟</tspan>
      </text>
      <path
         d="M250.587,394.945 L221.477,394.945 L221.477,393.305 Q221.477,387.094 227.735,385.781 Q232.962,377.93 232.962,372.234 L232.962,371.227 L227.29,371.227 L227.29,370.172 Q227.29,368.812 228.508,367.547 Q229.727,366.281 231.954,365.461 Q230.454,363.68 230.454,361.477 Q230.454,359.203 232.094,357.562 Q233.735,355.922 236.032,355.922 Q238.329,355.922 239.969,357.562 Q241.61,359.203 241.61,361.477 Q241.61,363.68 240.11,365.461 Q242.337,366.281 243.555,367.547 Q244.774,368.812 244.774,370.172 L244.774,371.227 L239.102,371.227 L239.102,372.234 Q239.102,377.93 244.329,385.781 Q250.587,387.094 250.587,393.305 z"
         fill="#FABA00"
         id="path268" />
      <path
         d="M250.587,394.945 L221.477,394.945 L221.477,393.305 Q221.477,387.094 227.735,385.781 Q232.962,377.93 232.962,372.234 L232.962,371.227 L227.29,371.227 L227.29,370.172 Q227.29,368.812 228.508,367.547 Q229.727,366.281 231.954,365.461 Q230.454,363.68 230.454,361.477 Q230.454,359.203 232.094,357.562 Q233.735,355.922 236.032,355.922 Q238.329,355.922 239.969,357.562 Q241.61,359.203 241.61,361.477 Q241.61,363.68 240.11,365.461 Q242.337,366.281 243.555,367.547 Q244.774,368.812 244.774,370.172 L244.774,371.227 L239.102,371.227 L239.102,372.234 Q239.102,377.93 244.329,385.781 Q250.587,387.094 250.587,393.305 z"
         fill-opacity="0"
         stroke="#294270"
         stroke-width="2"
         id="path270" />
    </g>
    <path
       d="M750.775,400 L800.775,400 L800.775,450 L750.775,450 z"
       fill="#65A1CF"
       id="path272" />
    <path
       d="M800.775,400 L850.775,400 L850.775,450 L800.775,450 z"
       fill="#EBEDED"
       id="path274" />
    <path
       d="M850.775,400 L900.775,400 L900.775,450 L850.775,450 z"
       fill="#65A1CF"
       id="path276" />
    <path
       d="M900.775,400 L950.775,400 L950.775,450 L900.775,450 z"
       fill="#EBEDED"
       id="path278" />
    <path
       d="M950.775,400 L1000.775,400 L1000.775,450 L950.775,450 z"
       fill="#65A1CF"
       id="path280" />
    <path
       d="M1000.775,400 L1050.775,400 L1050.775,450 L1000.775,450 z"
       fill="#EBEDED"
       id="path282" />
    <path
       d="M1050.775,400 L1100.775,400 L1100.775,450 L1050.775,450 z"
       fill="#65A1CF"
       id="path284" />
    <path
       d="M1100.775,400 L1150.775,400 L1150.775,450 L1100.775,450 z"
       fill="#EBEDED"
       id="path286" />
    <path
       d="M750.775,300 L800.775,300 L800.775,350 L750.775,350 z"
       fill="#65A1CF"
       id="path288" />
    <path
       d="M800.775,300 L850.775,300 L850.775,350 L800.775,350 z"
       fill="#EBEDED"
       id="path290" />
    <path
       d="M850.775,300 L900.775,300 L900.775,350 L850.775,350 z"
       fill="#65A1CF"
       id="path292" />
    <path
       d="M900.775,300 L950.775,300 L950.775,350 L900.775,350 z"
       fill="#EBEDED"
       id="path294" />
    <path
       d="M950.775,300 L1000.775,300 L1000.775,350 L950.775,350 z"
       fill="#65A1CF"
       id="path296" />
    <path
       d="M1000.775,300 L1050.775,300 L1050.775,350 L1000.775,350 z"
       fill="#EBEDED"
       id="path298" />
    <path
       d="M1050.775,300 L1100.775,300 L1100.775,350 L1050.775,350 z"
       fill="#65A1CF"
       id="path300" />
    <path
       d="M1100.775,300 L1150.775,300 L1150.775,350 L1100.775,350 z"
       fill="#EBEDED"
       id="path302" />
    <path
       d="M800.775,350 L850.775,350 L850.775,400 L800.775,400 z"
       fill="#65A1CF"
       id="path304" />
    <path
       d="M850.775,350 L900.775,350 L900.775,400 L850.775,400 z"
       fill="#EBEDED"
       id="path306" />
    <path
       d="M900.775,350 L950.775,350 L950.775,400 L900.775,400 z"
       fill="#65A1CF"
       id="path308" />
    <path
       d="M950.775,350 L1000.775,350 L1000.775,400 L950.775,400 z"
       fill="#EBEDED"
       id="path310" />
    <path
       d="M1000.775,350 L1050.775,350 L1050.775,400 L1000.775,400 z"
       fill="#65A1CF"
       id="path312" />
    <path
       d="M1050.775,350 L1100.775,350 L1100.775,400 L1050.775,400 z"
       fill="#EBEDED"
       id="path314" />
    <path
       d="M1100.775,350 L1150.775,350 L1150.775,400 L1100.775,400 z"
       fill="#65A1CF"
       id="path316" />
    <path
       d="M750.775,350 L800.775,350 L800.775,400 L750.775,400 z"
       fill="#EBEDED"
       id="path318" />
    <path
       d="M800.775,250 L850.775,250 L850.775,300 L800.775,300 z"
       fill="#65A1CF"
       id="path320" />
    <path
       d="M850.775,250 L900.775,250 L900.775,300 L850.775,300 z"
       fill="#EBEDED"
       id="path322" />
    <path
       d="M900.775,250 L950.775,250 L950.775,300 L900.775,300 z"
       fill="#65A1CF"
       id="path324" />
    <path
       d="M950.775,250 L1000.775,250 L1000.775,300 L950.775,300 z"
       fill="#EBEDED"
       id="path326" />
    <path
       d="M1000.775,250 L1050.775,250 L1050.775,300 L1000.775,300 z"
       fill="#65A1CF"
       id="path328" />
    <path
       d="M1050.775,250 L1100.775,250 L1100.775,300 L1050.775,300 z"
       fill="#EBEDED"
       id="path330" />
    <path
       d="M1100.775,250 L1150.775,250 L1150.775,300 L1100.775,300 z"
       fill="#65A1CF"
       id="path332" />
    <path
       d="M750.775,250 L800.775,250 L800.775,300 L750.775,300 z"
       fill="#EBEDED"
       id="path334" />
    <path
       d="M750.775,200 L800.775,200 L800.775,250 L750.775,250 z"
       fill="#65A1CF"
       id="path336" />
    <path
       d="M800.775,200 L850.775,200 L850.775,250 L800.775,250 z"
       fill="#EBEDED"
       id="path338" />
    <path
       d="M850.775,200 L900.775,200 L900.775,250 L850.775,250 z"
       fill="#65A1CF"
       id="path340" />
    <path
       d="M900.775,200 L950.775,200 L950.775,250 L900.775,250 z"
       fill="#EBEDED"
       id="path342" />
    <path
       d="M950.775,200 L1000.775,200 L1000.775,250 L950.775,250 z"
       fill="#65A1CF"
       id="path344" />
    <path
       d="M1000.775,200 L1050.775,200 L1050.775,250 L1000.775,250 z"
       fill="#EBEDED"
       id="path346" />
    <path
       d="M1050.775,200 L1100.775,200 L1100.775,250 L1050.775,250 z"
       fill="#65A1CF"
       id="path348" />
    <path
       d="M1100.775,200 L1150.775,200 L1150.775,250 L1100.775,250 z"
       fill="#EBEDED"
       id="path350" />
    <path
       d="M750.775,100 L800.775,100 L800.775,150 L750.775,150 z"
       fill="#65A1CF"
       id="path352" />
    <path
       d="M800.775,100 L850.775,100 L850.775,150 L800.775,150 z"
       fill="#EBEDED"
       id="path354" />
    <path
       d="M850.775,100 L900.775,100 L900.775,150 L850.775,150 z"
       fill="#65A1CF"
       id="path356" />
    <path
       d="M900.775,100 L950.775,100 L950.775,150 L900.775,150 z"
       fill="#EBEDED"
       id="path358" />
    <path
       d="M950.775,100 L1000.775,100 L1000.775,150 L950.775,150 z"
       fill="#65A1CF"
       id="path360" />
    <path
       d="M1000.775,100 L1050.775,100 L1050.775,150 L1000.775,150 z"
       fill="#EBEDED"
       id="path362" />
    <path
       d="M1050.775,100 L1100.775,100 L1100.775,150 L1050.775,150 z"
       fill="#65A1CF"
       id="path364" />
    <path
       d="M1100.775,100 L1150.775,100 L1150.775,150 L1100.775,150 z"
       fill="#EBEDED"
       id="path366" />
    <path
       d="M800.775,150 L850.775,150 L850.775,200 L800.775,200 z"
       fill="#65A1CF"
       id="path368" />
    <path
       d="M850.775,150 L900.775,150 L900.775,200 L850.775,200 z"
       fill="#EBEDED"
       id="path370" />
    <path
       d="M900.775,150 L950.775,150 L950.775,200 L900.775,200 z"
       fill="#65A1CF"
       id="path372" />
    <path
       d="M950.775,150 L1000.775,150 L1000.775,200 L950.775,200 z"
       fill="#EBEDED"
       id="path374" />
    <path
       d="M1000.775,150 L1050.775,150 L1050.775,200 L1000.775,200 z"
       fill="#65A1CF"
       id="path376" />
    <path
       d="M1050.775,150 L1100.775,150 L1100.775,200 L1050.775,200 z"
       fill="#EBEDED"
       id="path378" />
    <path
       d="M1100.775,150 L1150.775,150 L1150.775,200 L1100.775,200 z"
       fill="#65A1CF"
       id="path380" />
    <path
       d="M750.775,150 L800.775,150 L800.775,200 L750.775,200 z"
       fill="#EBEDED"
       id="path382" />
    <path
       d="M800.775,50 L850.775,50 L850.775,100 L800.775,100 z"
       fill="#65A1CF"
       id="path384" />
    <path
       d="M850.775,50 L900.775,50 L900.775,100 L850.775,100 z"
       fill="#EBEDED"
       id="path386" />
    <path
       d="M900.775,50 L950.775,50 L950.775,100 L900.775,100 z"
       fill="#65A1CF"
       id="path388" />
    <path
       d="M950.775,50 L1000.775,50 L1000.775,100 L950.775,100 z"
       fill="#EBEDED"
       id="path390" />
    <path
       d="M1000.775,50 L1050.775,50 L1050.775,100 L1000.775,100 z"
       fill="#65A1CF"
       id="path392" />
    <path
       d="M1050.775,50 L1100.775,50 L1100.775,100 L1050.775,100 z"
       fill="#EBEDED"
       id="path394" />
    <path
       d="M1100.775,50 L1150.775,50 L1150.775,100 L1100.775,100 z"
       fill="#65A1CF"
       id="path396" />
    <path
       d="M750.775,50 L800.775,50 L800.775,100 L750.775,100 z"
       fill="#EBEDED"
       id="path398" />
    <path
       d="M751.275,50.5 L1151.275,50.5 L1151.275,450.5 L751.275,450.5 z"
       fill-opacity="0"
       stroke="#294270"
       stroke-width="8"
       id="path400" />
    <text
       transform="matrix(1, 0, 0, 1, 775.447, 482)"
       id="text402">
      <tspan
         x="-10.742"
         y="10"
         font-family="Roboto-Bold"
         font-size="40"
         fill="#294270"
         id="tspan404">a</tspan>
    </text>
    <text
       transform="matrix(1, 0, 0, 1, 825.447, 482)"
       id="text406">
      <tspan
         x="-11.289"
         y="10"
         font-family="Roboto-Bold"
         font-size="40"
         fill="#294270"
         id="tspan408">b</tspan>
    </text>
    <text
       transform="matrix(1, 0, 0, 1, 875.447, 482)"
       id="text410">
      <tspan
         x="-10.352"
         y="10"
         font-family="Roboto-Bold"
         font-size="40"
         fill="#294270"
         id="tspan412">c</tspan>
    </text>
    <text
       transform="matrix(1, 0, 0, 1, 925.447, 482)"
       id="text414">
      <tspan
         x="-11.289"
         y="10"
         font-family="Roboto-Bold"
         font-size="40"
         fill="#294270"
         id="tspan416">d</tspan>
    </text>
    <text
       transform="matrix(1, 0, 0, 1, 975.447, 482)"
       id="text418">
      <tspan
         x="-10.586"
         y="10"
         font-family="Roboto-Bold"
         font-size="40"
         fill="#294270"
         id="tspan420">e</tspan>
    </text>
    <text
       transform="matrix(1, 0, 0, 1, 1078.158, 482)"
       id="text422">
      <tspan
         x="-11.289"
         y="10"
         font-family="Roboto-Bold"
         font-size="40"
         fill="#294270"
         id="tspan424">g</tspan>
    </text>
    <text
       transform="matrix(1, 0, 0, 1, 1030.08, 482)"
       id="text426">
      <tspan
         x="-7.148"
         y="10"
         font-family="Roboto-Bold"
         font-size="40"
         fill="#294270"
         id="tspan428">f</tspan>
    </text>
    <text
       transform="matrix(1, 0, 0, 1, 1125.447, 482)"
       id="text430">
      <tspan
         x="-11.289"
         y="10"
         font-family="Roboto-Bold"
         font-size="40"
         fill="#294270"
         id="tspan432">h</tspan>
    </text>
    <text
       transform="matrix(1, 0, 0, 1, 722.606, 427)"
       id="text434">
      <tspan
         x="-11.475"
         y="15"
         font-family="Roboto-Bold"
         font-size="40"
         fill="#294270"
         id="tspan436">1</tspan>
    </text>
    <text
       transform="matrix(1, 0, 0, 1, 722.606, 377)"
       id="text438">
      <tspan
         x="-11.475"
         y="15"
         font-family="Roboto-Bold"
         font-size="40"
         fill="#294270"
         id="tspan440">2</tspan>
    </text>
    <text
       transform="matrix(1, 0, 0, 1, 722.606, 327)"
       id="text442">
      <tspan
         x="-11.475"
         y="15"
         font-family="Roboto-Bold"
         font-size="40"
         fill="#294270"
         id="tspan444">3</tspan>
    </text>
    <text
       transform="matrix(1, 0, 0, 1, 722.606, 277)"
       id="text446">
      <tspan
         x="-11.475"
         y="15"
         font-family="Roboto-Bold"
         font-size="40"
         fill="#294270"
         id="tspan448">4</tspan>
    </text>
    <text
       transform="matrix(1, 0, 0, 1, 722.606, 227)"
       id="text450">
      <tspan
         x="-11.475"
         y="15"
         font-family="Roboto-Bold"
         font-size="40"
         fill="#294270"
         id="tspan452">5</tspan>
    </text>
    <text
       transform="matrix(1, 0, 0, 1, 722.606, 177)"
       id="text454">
      <tspan
         x="-11.475"
         y="15"
         font-family="Roboto-Bold"
         font-size="40"
         fill="#294270"
         id="tspan456">6</tspan>
    </text>
    <text
       transform="matrix(1, 0, 0, 1, 722.606, 127)"
       id="text458">
      <tspan
         x="-11.475"
         y="15"
         font-family="Roboto-Bold"
         font-size="40"
         fill="#294270"
         id="tspan460">7</tspan>
    </text>
    <text
       transform="matrix(1, 0, 0, 1, 722.606, 77)"
       id="text462">
      <tspan
         x="-11.475"
         y="15"
         font-family="Roboto-Bold"
         font-size="40"
         fill="#294270"
         id="tspan464">8</tspan>
    </text>
    <g
       id="g466">
      <text
         transform="matrix(1, 0, 0, 1, 925.775, 271.5)"
         id="text468">
        <tspan
           x="-24"
           y="18.5"
           font-family="ArialUnicodeMS"
           font-size="48"
           fill="#294270"
           id="tspan470">♟</tspan>
      </text>
      <path
         d="M940.33,294.945 L911.221,294.945 L911.221,293.305 Q911.221,287.094 917.478,285.781 Q922.705,277.93 922.705,272.234 L922.705,271.227 L917.033,271.227 L917.033,270.172 Q917.033,268.812 918.252,267.547 Q919.471,266.281 921.697,265.461 Q920.197,263.68 920.197,261.477 Q920.197,259.203 921.838,257.562 Q923.478,255.922 925.775,255.922 Q928.072,255.922 929.713,257.562 Q931.353,259.203 931.353,261.477 Q931.353,263.68 929.853,265.461 Q932.08,266.281 933.299,267.547 Q934.517,268.812 934.517,270.172 L934.517,271.227 L928.846,271.227 L928.846,272.234 Q928.846,277.93 934.072,285.781 Q940.33,287.094 940.33,293.305 z"
         fill="#FABA00"
         id="path472" />
      <path
         d="M940.33,294.945 L911.221,294.945 L911.221,293.305 Q911.221,287.094 917.478,285.781 Q922.705,277.93 922.705,272.234 L922.705,271.227 L917.033,271.227 L917.033,270.172 Q917.033,268.812 918.252,267.547 Q919.471,266.281 921.697,265.461 Q920.197,263.68 920.197,261.477 Q920.197,259.203 921.838,257.562 Q923.478,255.922 925.775,255.922 Q928.072,255.922 929.713,257.562 Q931.353,259.203 931.353,261.477 Q931.353,263.68 929.853,265.461 Q932.08,266.281 933.299,267.547 Q934.517,268.812 934.517,270.172 L934.517,271.227 L928.846,271.227 L928.846,272.234 Q928.846,277.93 934.072,285.781 Q940.33,287.094 940.33,293.305 z"
         fill-opacity="0"
         stroke="#294270"
         stroke-width="2"
         id="path474" />
    </g>
    <g
       id="g476">
      <text
         transform="matrix(1, 0, 0, 1, 1075.775, 271.5)"
         id="text478">
        <tspan
           x="-24"
           y="18.5"
           font-family="ArialUnicodeMS"
           font-size="48"
           fill="#294270"
           id="tspan480">♟</tspan>
      </text>
      <path
         d="M1090.33,294.945 L1061.221,294.945 L1061.221,293.305 Q1061.221,287.094 1067.478,285.781 Q1072.705,277.93 1072.705,272.234 L1072.705,271.227 L1067.033,271.227 L1067.033,270.172 Q1067.033,268.812 1068.252,267.547 Q1069.471,266.281 1071.697,265.461 Q1070.197,263.68 1070.197,261.477 Q1070.197,259.203 1071.838,257.562 Q1073.478,255.922 1075.775,255.922 Q1078.072,255.922 1079.713,257.562 Q1081.353,259.203 1081.353,261.477 Q1081.353,263.68 1079.853,265.461 Q1082.08,266.281 1083.299,267.547 Q1084.517,268.812 1084.517,270.172 L1084.517,271.227 L1078.846,271.227 L1078.846,272.234 Q1078.846,277.93 1084.072,285.781 Q1090.33,287.094 1090.33,293.305 z"
         fill="#FABA00"
         id="path482" />
      <path
         d="M1090.33,294.945 L1061.221,294.945 L1061.221,293.305 Q1061.221,287.094 1067.478,285.781 Q1072.705,277.93 1072.705,272.234 L1072.705,271.227 L1067.033,271.227 L1067.033,270.172 Q1067.033,268.812 1068.252,267.547 Q1069.471,266.281 1071.697,265.461 Q1070.197,263.68 1070.197,261.477 Q1070.197,259.203 1071.838,257.562 Q1073.478,255.922 1075.775,255.922 Q1078.072,255.922 1079.713,257.562 Q1081.353,259.203 1081.353,261.477 Q1081.353,263.68 1079.853,265.461 Q1082.08,266.281 1083.299,267.547 Q1084.517,268.812 1084.517,270.172 L1084.517,271.227 L1078.846,271.227 L1078.846,272.234 Q1078.846,277.93 1084.072,285.781 Q1090.33,287.094 1090.33,293.305 z"
         fill-opacity="0"
         stroke="#294270"
         stroke-width="2"
         id="path484" />
    </g>
    <g
       id="g486">
      <text
         transform="matrix(1, 0, 0, 1, 1025.775, 271.5)"
         id="text488">
        <tspan
           x="-24"
           y="18.5"
           font-family="ArialUnicodeMS"
           font-size="48"
           fill="#294270"
           id="tspan490">♟</tspan>
      </text>
      <path
         d="M1040.33,294.945 L1011.221,294.945 L1011.221,293.305 Q1011.221,287.094 1017.478,285.781 Q1022.705,277.93 1022.705,272.234 L1022.705,271.227 L1017.033,271.227 L1017.033,270.172 Q1017.033,268.812 1018.252,267.547 Q1019.471,266.281 1021.697,265.461 Q1020.197,263.68 1020.197,261.477 Q1020.197,259.203 1021.838,257.562 Q1023.478,255.922 1025.775,255.922 Q1028.072,255.922 1029.713,257.562 Q1031.353,259.203 1031.353,261.477 Q1031.353,263.68 1029.853,265.461 Q1032.08,266.281 1033.299,267.547 Q1034.517,268.812 1034.517,270.172 L1034.517,271.227 L1028.846,271.227 L1028.846,272.234 Q1028.846,277.93 1034.072,285.781 Q1040.33,287.094 1040.33,293.305 z"
         fill="#FABA00"
         id="path492" />
      <path
         d="M1040.33,294.945 L1011.221,294.945 L1011.221,293.305 Q1011.221,287.094 1017.478,285.781 Q1022.705,277.93 1022.705,272.234 L1022.705,271.227 L1017.033,271.227 L1017.033,270.172 Q1017.033,268.812 1018.252,267.547 Q1019.471,266.281 1021.697,265.461 Q1020.197,263.68 1020.197,261.477 Q1020.197,259.203 1021.838,257.562 Q1023.478,255.922 1025.775,255.922 Q1028.072,255.922 1029.713,257.562 Q1031.353,259.203 1031.353,261.477 Q1031.353,263.68 1029.853,265.461 Q1032.08,266.281 1033.299,267.547 Q1034.517,268.812 1034.517,270.172 L1034.517,271.227 L1028.846,271.227 L1028.846,272.234 Q1028.846,277.93 1034.072,285.781 Q1040.33,287.094 1040.33,293.305 z"
         fill-opacity="0"
         stroke="#294270"
         stroke-width="2"
         id="path494" />
    </g>
    <g
       id="g496">
      <text
         transform="matrix(1, 0, 0, 1, 975.775, 271.5)"
         id="text498">
        <tspan
           x="-24"
           y="18.5"
           font-family="ArialUnicodeMS"
           font-size="48"
           fill="#294270"
           id="tspan500">♟</tspan>
      </text>
      <path
         d="M990.33,294.945 L961.221,294.945 L961.221,293.305 Q961.221,287.094 967.478,285.781 Q972.705,277.93 972.705,272.234 L972.705,271.227 L967.033,271.227 L967.033,270.172 Q967.033,268.812 968.252,267.547 Q969.471,266.281 971.697,265.461 Q970.197,263.68 970.197,261.477 Q970.197,259.203 971.838,257.562 Q973.478,255.922 975.775,255.922 Q978.072,255.922 979.713,257.562 Q981.353,259.203 981.353,261.477 Q981.353,263.68 979.853,265.461 Q982.08,266.281 983.299,267.547 Q984.517,268.812 984.517,270.172 L984.517,271.227 L978.846,271.227 L978.846,272.234 Q978.846,277.93 984.072,285.781 Q990.33,287.094 990.33,293.305 z"
         fill="#FABA00"
         id="path502" />
      <path
         d="M990.33,294.945 L961.221,294.945 L961.221,293.305 Q961.221,287.094 967.478,285.781 Q972.705,277.93 972.705,272.234 L972.705,271.227 L967.033,271.227 L967.033,270.172 Q967.033,268.812 968.252,267.547 Q969.471,266.281 971.697,265.461 Q970.197,263.68 970.197,261.477 Q970.197,259.203 971.838,257.562 Q973.478,255.922 975.775,255.922 Q978.072,255.922 979.713,257.562 Q981.353,259.203 981.353,261.477 Q981.353,263.68 979.853,265.461 Q982.08,266.281 983.299,267.547 Q984.517,268.812 984.517,270.172 L984.517,271.227 L978.846,271.227 L978.846,272.234 Q978.846,277.93 984.072,285.781 Q990.33,287.094 990.33,293.305 z"
         fill-opacity="0"
         stroke="#294270"
         stroke-width="2"
         id="path504" />
    </g>
    <g
       id="g506">
      <text
         transform="matrix(1, 0, 0, 1, 875.775, 271.5)"
         id="text508">
        <tspan
           x="-24"
           y="18.5"
           font-family="ArialUnicodeMS"
           font-size="48"
           fill="#294270"
           id="tspan510">♟</tspan>
      </text>
      <path
         d="M890.33,294.945 L861.221,294.945 L861.221,293.305 Q861.221,287.094 867.478,285.781 Q872.705,277.93 872.705,272.234 L872.705,271.227 L867.033,271.227 L867.033,270.172 Q867.033,268.812 868.252,267.547 Q869.471,266.281 871.697,265.461 Q870.197,263.68 870.197,261.477 Q870.197,259.203 871.838,257.562 Q873.478,255.922 875.775,255.922 Q878.072,255.922 879.713,257.562 Q881.353,259.203 881.353,261.477 Q881.353,263.68 879.853,265.461 Q882.08,266.281 883.299,267.547 Q884.517,268.812 884.517,270.172 L884.517,271.227 L878.846,271.227 L878.846,272.234 Q878.846,277.93 884.072,285.781 Q890.33,287.094 890.33,293.305 z"
         fill="#FABA00"
         id="path512" />
      <path
         d="M890.33,294.945 L861.221,294.945 L861.221,293.305 Q861.221,287.094 867.478,285.781 Q872.705,277.93 872.705,272.234 L872.705,271.227 L867.033,271.227 L867.033,270.172 Q867.033,268.812 868.252,267.547 Q869.471,266.281 871.697,265.461 Q870.197,263.68 870.197,261.477 Q870.197,259.203 871.838,257.562 Q873.478,255.922 875.775,255.922 Q878.072,255.922 879.713,257.562 Q881.353,259.203 881.353,261.477 Q881.353,263.68 879.853,265.461 Q882.08,266.281 883.299,267.547 Q884.517,268.812 884.517,270.172 L884.517,271.227 L878.846,271.227 L878.846,272.234 Q878.846,277.93 884.072,285.781 Q890.33,287.094 890.33,293.305 z"
         fill-opacity="0"
         stroke="#294270"
         stroke-width="2"
         id="path514" />
    </g>
    <g
       id="g516">
      <text
         transform="matrix(1, 0, 0, 1, 825.447, 271.5)"
         id="text518">
        <tspan
           x="-24"
           y="18.5"
           font-family="ArialUnicodeMS"
           font-size="48"
           fill="#294270"
           id="tspan520">♟</tspan>
      </text>
      <path
         d="M840.002,294.945 L810.892,294.945 L810.892,293.305 Q810.892,287.094 817.15,285.781 Q822.377,277.93 822.377,272.234 L822.377,271.227 L816.705,271.227 L816.705,270.172 Q816.705,268.812 817.924,267.547 Q819.142,266.281 821.369,265.461 Q819.869,263.68 819.869,261.477 Q819.869,259.203 821.51,257.562 Q823.15,255.922 825.447,255.922 Q827.744,255.922 829.385,257.562 Q831.025,259.203 831.025,261.477 Q831.025,263.68 829.525,265.461 Q831.752,266.281 832.971,267.547 Q834.189,268.812 834.189,270.172 L834.189,271.227 L828.517,271.227 L828.517,272.234 Q828.517,277.93 833.744,285.781 Q840.002,287.094 840.002,293.305 z"
         fill="#FABA00"
         id="path522" />
      <path
         d="M840.002,294.945 L810.892,294.945 L810.892,293.305 Q810.892,287.094 817.15,285.781 Q822.377,277.93 822.377,272.234 L822.377,271.227 L816.705,271.227 L816.705,270.172 Q816.705,268.812 817.924,267.547 Q819.142,266.281 821.369,265.461 Q819.869,263.68 819.869,261.477 Q819.869,259.203 821.51,257.562 Q823.15,255.922 825.447,255.922 Q827.744,255.922 829.385,257.562 Q831.025,259.203 831.025,261.477 Q831.025,263.68 829.525,265.461 Q831.752,266.281 832.971,267.547 Q834.189,268.812 834.189,270.172 L834.189,271.227 L828.517,271.227 L828.517,272.234 Q828.517,277.93 833.744,285.781 Q840.002,287.094 840.002,293.305 z"
         fill-opacity="0"
         stroke="#294270"
         stroke-width="2"
         id="path524" />
    </g>
    <g
       id="g526">
      <text
         transform="matrix(1, 0, 0, 1, 975.447, 221.5)"
         id="text528">
        <tspan
           x="-24"
           y="18.5"
           font-family="ArialUnicodeMS"
           font-size="48"
           fill="#294270"
           id="tspan530">♟</tspan>
      </text>
      <path
         d="M990.002,244.945 L960.892,244.945 L960.892,243.305 Q960.892,237.094 967.15,235.781 Q972.377,227.93 972.377,222.234 L972.377,221.227 L966.705,221.227 L966.705,220.172 Q966.705,218.812 967.924,217.547 Q969.142,216.281 971.369,215.461 Q969.869,213.68 969.869,211.477 Q969.869,209.203 971.51,207.562 Q973.15,205.922 975.447,205.922 Q977.744,205.922 979.385,207.562 Q981.025,209.203 981.025,211.477 Q981.025,213.68 979.525,215.461 Q981.752,216.281 982.971,217.547 Q984.189,218.812 984.189,220.172 L984.189,221.227 L978.517,221.227 L978.517,222.234 Q978.517,227.93 983.744,235.781 Q990.002,237.094 990.002,243.305 z"
         fill="#8FC7ED"
         id="path532" />
      <path
         d="M990.002,244.945 L960.892,244.945 L960.892,243.305 Q960.892,237.094 967.15,235.781 Q972.377,227.93 972.377,222.234 L972.377,221.227 L966.705,221.227 L966.705,220.172 Q966.705,218.812 967.924,217.547 Q969.142,216.281 971.369,215.461 Q969.869,213.68 969.869,211.477 Q969.869,209.203 971.51,207.562 Q973.15,205.922 975.447,205.922 Q977.744,205.922 979.385,207.562 Q981.025,209.203 981.025,211.477 Q981.025,213.68 979.525,215.461 Q981.752,216.281 982.971,217.547 Q984.189,218.812 984.189,220.172 L984.189,221.227 L978.517,221.227 L978.517,222.234 Q978.517,227.93 983.744,235.781 Q990.002,237.094 990.002,243.305 z"
         fill-opacity="0"
         stroke="#294270"
         stroke-width="2"
         id="path534" />
    </g>
    <g
       id="g536">
      <text
         transform="matrix(1, 0, 0, 1, 600, 63.152)"
         id="text538">
        <tspan
           x="-24"
           y="18.5"
           font-family="ArialUnicodeMS"
           font-size="48"
           fill="#294270"
           id="tspan540">♟</tspan>
      </text>
      <path
         d="M614.555,86.597 L585.445,86.597 L585.445,84.956 Q585.445,78.745 591.703,77.433 Q596.93,69.581 596.93,63.886 L596.93,62.878 L591.258,62.878 L591.258,61.824 Q591.258,60.464 592.477,59.199 Q593.695,57.933 595.922,57.113 Q594.422,55.331 594.422,53.128 Q594.422,50.855 596.062,49.214 Q597.703,47.574 600,47.574 Q602.297,47.574 603.938,49.214 Q605.578,50.855 605.578,53.128 Q605.578,55.331 604.078,57.113 Q606.305,57.933 607.523,59.199 Q608.742,60.464 608.742,61.824 L608.742,62.878 L603.07,62.878 L603.07,63.886 Q603.07,69.581 608.297,77.433 Q614.555,78.745 614.555,84.956 z"
         fill="#8FC7ED"
         id="path542" />
      <path
         d="M614.555,86.597 L585.445,86.597 L585.445,84.956 Q585.445,78.745 591.703,77.433 Q596.93,69.581 596.93,63.886 L596.93,62.878 L591.258,62.878 L591.258,61.824 Q591.258,60.464 592.477,59.199 Q593.695,57.933 595.922,57.113 Q594.422,55.331 594.422,53.128 Q594.422,50.855 596.062,49.214 Q597.703,47.574 600,47.574 Q602.297,47.574 603.938,49.214 Q605.578,50.855 605.578,53.128 Q605.578,55.331 604.078,57.113 Q606.305,57.933 607.523,59.199 Q608.742,60.464 608.742,61.824 L608.742,62.878 L603.07,62.878 L603.07,63.886 Q603.07,69.581 608.297,77.433 Q614.555,78.745 614.555,84.956 z"
         fill-opacity="0"
         stroke="#294270"
         stroke-width="2"
         id="path544" />
    </g>
    <text
       id="text546"
       x="564.76184"
       y="127">
      <tspan
         x="518.21484"
         y="145"
         font-size="48"
         id="tspan548"
         style="font-size:48px;fill:#294270;font-family:Roboto-Bold">seguro</tspan>
    </text>
    <g
       id="g550">
      <text
         transform="matrix(1, 0, 0, 1, 600, 367.5)"
         id="text552">
        <tspan
           x="-24"
           y="18.5"
           font-family="ArialUnicodeMS"
           font-size="48"
           fill="#294270"
           id="tspan554">♟</tspan>
      </text>
      <path
         d="M614.555,390.945 L585.445,390.945 L585.445,389.305 Q585.445,383.094 591.703,381.781 Q596.93,373.93 596.93,368.234 L596.93,367.227 L591.258,367.227 L591.258,366.172 Q591.258,364.812 592.477,363.547 Q593.695,362.281 595.922,361.461 Q594.422,359.68 594.422,357.477 Q594.422,355.203 596.062,353.562 Q597.703,351.922 600,351.922 Q602.297,351.922 603.938,353.562 Q605.578,355.203 605.578,357.477 Q605.578,359.68 604.078,361.461 Q606.305,362.281 607.523,363.547 Q608.742,364.812 608.742,366.172 L608.742,367.227 L603.07,367.227 L603.07,368.234 Q603.07,373.93 608.297,381.781 Q614.555,383.094 614.555,389.305 z"
         fill="#FABA00"
         id="path556" />
      <path
         d="M614.555,390.945 L585.445,390.945 L585.445,389.305 Q585.445,383.094 591.703,381.781 Q596.93,373.93 596.93,368.234 L596.93,367.227 L591.258,367.227 L591.258,366.172 Q591.258,364.812 592.477,363.547 Q593.695,362.281 595.922,361.461 Q594.422,359.68 594.422,357.477 Q594.422,355.203 596.062,353.562 Q597.703,351.922 600,351.922 Q602.297,351.922 603.938,353.562 Q605.578,355.203 605.578,357.477 Q605.578,359.68 604.078,361.461 Q606.305,362.281 607.523,363.547 Q608.742,364.812 608.742,366.172 L608.742,367.227 L603.07,367.227 L603.07,368.234 Q603.07,373.93 608.297,381.781 Q614.555,383.094 614.555,389.305 z"
         fill-opacity="0"
         stroke="#294270"
         stroke-width="2"
         id="path558" />
    </g>
    <text
       id="text560"
       x="569.00427"
       y="432">
      <tspan
         x="495.36328"
         y="450"
         font-size="48"
         id="tspan562"
         style="font-size:48px;fill:#294270;font-family:Roboto-Bold">inseguro</tspan>
    </text>
  </g>
</svg>
